# xmcd CD database file
#
# Track frame offsets:
#	150
#	18790
#	39419
#	61323
#	84630
#	112998
#	133502
#	154507
#	178409
#	205506
#	229841
#	254834
#	286873
#	309519
#
# Disc length: 4349 seconds
#
# Revision: 0
# Processed by: cddbd v1.5.1PL0 Copyright (c) Steve Scherf et al.
# Submitted via: CDex 1.51
#
DISCID=b710fb0e
DTITLE=m3 - m3
DYEAR=1900
DGENRE=Vocal
TTITLE0=初恋
TTITLE1=Ｃａｎｖａｓ
TTITLE2=Ｃｏｍｅ　Ｂａｃｋ　Ｔｏ　Ｍｅ
TTITLE3=２４時間の神話
TTITLE4=Voiceless Screaming
TTITLE5=あいしてる　愛してた　ドリカム
TTITLE6=Ｔｅａｒｓ　Ｉ　Ｃｒｉｅｄ
TTITLE7=Pearl　Moon倖田
TTITLE8=１０００の言葉倖田
TTITLE9=私とワルツを（テレビ朝日系「トリック」主題歌）
TTITLE10=Ｆａｒ　ａｗａｙ　ｆｒｏｍ　Ｈｅａｖｅｎ
TTITLE11=防人の詩
TTITLE12=遠くまで
TTITLE13=Inspiration
EXTD=
EXTT0=
EXTT1=
EXTT2=
EXTT3=
EXTT4=
EXTT5=
EXTT6=
EXTT7=
EXTT8=
EXTT9=
EXTT10=
EXTT11=
EXTT12=
EXTT13=
PLAYORDER=
